<svg aria-hidden="true" style="position: absolute; width: 0; height: 0; overflow: hidden;" version="1.1" xmlns="http://www.w3.org/2000/svg" xmlns:xlink="http://www.w3.org/1999/xlink">
<defs>
<symbol id="icon-youtube" viewBox="0 0 32 32">
<path d="M13.333 20l6.92-4-6.92-4v8zM28.747 9.56c0.173 0.627 0.293 1.467 0.373 2.533 0.093 1.067 0.133 1.987 0.133 2.787l0.080 1.12c0 2.92-0.213 5.067-0.587 6.44-0.333 1.2-1.107 1.973-2.307 2.307-0.627 0.173-1.773 0.293-3.533 0.373-1.733 0.093-3.32 0.133-4.787 0.133l-2.12 0.080c-5.587 0-9.067-0.213-10.44-0.587-1.2-0.333-1.973-1.107-2.307-2.307-0.173-0.627-0.293-1.467-0.373-2.533-0.093-1.067-0.133-1.987-0.133-2.787l-0.080-1.12c0-2.92 0.213-5.067 0.587-6.44 0.333-1.2 1.107-1.973 2.307-2.307 0.627-0.173 1.773-0.293 3.533-0.373 1.733-0.093 3.32-0.133 4.787-0.133l2.12-0.080c5.587 0 9.067 0.213 10.44 0.587 1.2 0.333 1.973 1.107 2.307 2.307z"></path>
</symbol>
<symbol id="icon-account" viewBox="0 0 32 32">
<path d="M32 15.984c0-8.824-7.168-15.984-16-15.984s-16 7.16-16 15.984c0 4.86 2.208 9.24 5.664 12.18 0.032 0.032 0.064 0.032 0.064 0.064 0.288 0.224 0.576 0.448 0.896 0.672 0.16 0.096 0.288 0.222 0.448 0.35 2.644 1.793 5.765 2.751 8.96 2.75 3.195 0.001 6.316-0.957 8.96-2.75 0.16-0.096 0.288-0.222 0.448-0.32 0.288-0.222 0.608-0.446 0.896-0.67 0.032-0.032 0.064-0.032 0.064-0.064 3.392-2.974 5.6-7.352 5.6-12.212zM16 29.986c-3.008 0-5.76-0.96-8.032-2.558 0.032-0.256 0.096-0.51 0.16-0.766 0.191-0.694 0.47-1.36 0.832-1.982 0.352-0.608 0.768-1.152 1.28-1.632 0.48-0.48 1.056-0.926 1.632-1.278 0.608-0.352 1.248-0.608 1.952-0.8 0.709-0.191 1.441-0.287 2.176-0.286 2.181-0.015 4.282 0.821 5.856 2.332 0.736 0.736 1.312 1.6 1.728 2.59 0.224 0.576 0.384 1.184 0.48 1.822-2.362 1.66-5.177 2.553-8.064 2.558zM11.104 15.186c-0.282-0.646-0.424-1.344-0.416-2.048 0-0.702 0.128-1.406 0.416-2.046s0.672-1.214 1.152-1.694c0.48-0.48 1.056-0.862 1.696-1.15s1.344-0.416 2.048-0.416c0.736 0 1.408 0.128 2.048 0.416s1.216 0.672 1.696 1.15c0.48 0.48 0.864 1.056 1.152 1.694 0.288 0.64 0.416 1.344 0.416 2.046 0 0.736-0.128 1.408-0.416 2.046-0.278 0.631-0.668 1.205-1.152 1.696-0.491 0.483-1.066 0.873-1.696 1.15-1.322 0.543-2.806 0.543-4.128 0-0.63-0.277-1.205-0.667-1.696-1.15-0.484-0.484-0.865-1.059-1.12-1.694zM25.952 25.798c0-0.064-0.032-0.096-0.032-0.16-0.315-1.001-0.779-1.949-1.376-2.812-0.598-0.869-1.333-1.636-2.176-2.27-0.644-0.484-1.342-0.892-2.080-1.216 0.336-0.222 0.647-0.478 0.928-0.766 0.477-0.471 0.896-0.997 1.248-1.568 0.709-1.164 1.075-2.505 1.056-3.868 0.010-1.009-0.186-2.009-0.576-2.94-0.385-0.897-0.939-1.711-1.632-2.398-0.692-0.68-1.506-1.223-2.4-1.6-0.932-0.389-1.934-0.585-2.944-0.574-1.010-0.010-2.012 0.186-2.944 0.576-0.902 0.376-1.718 0.931-2.4 1.63-0.68 0.691-1.223 1.505-1.6 2.398-0.39 0.931-0.586 1.931-0.576 2.94 0 0.704 0.096 1.376 0.288 2.014 0.192 0.672 0.448 1.28 0.8 1.854 0.32 0.576 0.768 1.088 1.248 1.568 0.288 0.288 0.608 0.542 0.96 0.766-0.74 0.332-1.439 0.751-2.080 1.248-0.832 0.64-1.568 1.406-2.176 2.238-0.603 0.859-1.068 1.808-1.376 2.812-0.032 0.064-0.032 0.128-0.032 0.16-2.528-2.558-4.096-6.010-4.096-9.846 0-7.704 6.304-14.002 14.016-14.002s14.016 6.298 14.016 14.002c-0.004 3.68-1.465 7.208-4.064 9.814z"></path>
</symbol>
<symbol id="icon-instagram" viewBox="0 0 32 32">
<path d="M10.4 2.667h11.2c4.267 0 7.733 3.467 7.733 7.733v11.2c0 2.051-0.815 4.018-2.265 5.468s-3.417 2.265-5.468 2.265h-11.2c-4.267 0-7.733-3.467-7.733-7.733v-11.2c0-2.051 0.815-4.018 2.265-5.468s3.417-2.265 5.468-2.265zM10.133 5.333c-1.273 0-2.494 0.506-3.394 1.406s-1.406 2.121-1.406 3.394v11.733c0 2.653 2.147 4.8 4.8 4.8h11.733c1.273 0 2.494-0.506 3.394-1.406s1.406-2.121 1.406-3.394v-11.733c0-2.653-2.147-4.8-4.8-4.8h-11.733zM23 7.333c0.442 0 0.866 0.176 1.179 0.488s0.488 0.737 0.488 1.179-0.176 0.866-0.488 1.178c-0.313 0.313-0.737 0.488-1.179 0.488s-0.866-0.176-1.178-0.488c-0.313-0.313-0.488-0.736-0.488-1.178s0.176-0.866 0.488-1.178c0.313-0.313 0.736-0.488 1.178-0.488zM16 9.333c1.768 0 3.464 0.702 4.714 1.953s1.953 2.946 1.953 4.714c0 1.768-0.702 3.464-1.953 4.714s-2.946 1.953-4.714 1.953-3.464-0.702-4.714-1.953c-1.25-1.25-1.953-2.946-1.953-4.714s0.702-3.464 1.953-4.714c1.25-1.25 2.946-1.953 4.714-1.953zM16 12c-1.061 0-2.078 0.421-2.828 1.172s-1.172 1.768-1.172 2.828 0.421 2.078 1.172 2.828c0.75 0.75 1.768 1.172 2.828 1.172s2.078-0.421 2.828-1.172c0.75-0.75 1.172-1.768 1.172-2.828s-0.421-2.078-1.172-2.828c-0.75-0.75-1.768-1.172-2.828-1.172z"></path>
</symbol>
<symbol id="icon-twitter" viewBox="0 0 32 32">
<path d="M29.947 8c-1.027 0.467-2.133 0.773-3.28 0.92 1.173-0.707 2.080-1.827 2.507-3.173-1.107 0.667-2.333 1.133-3.627 1.4-1.053-1.147-2.533-1.813-4.213-1.813-3.133 0-5.693 2.56-5.693 5.72 0 0.453 0.053 0.893 0.147 1.307-4.747-0.24-8.973-2.52-11.787-5.973-0.493 0.84-0.773 1.827-0.773 2.867 0 1.987 1 3.747 2.547 4.747-0.947 0-1.827-0.267-2.6-0.667v0.040c0 2.773 1.973 5.093 4.587 5.613-0.839 0.23-1.72 0.262-2.573 0.093 0.362 1.137 1.071 2.131 2.028 2.844s2.113 1.108 3.305 1.129c-2.022 1.601-4.528 2.466-7.107 2.453-0.453 0-0.907-0.027-1.36-0.080 2.533 1.627 5.547 2.573 8.773 2.573 10.507 0 16.28-8.72 16.28-16.28 0-0.253-0-0.493-0.013-0.747 1.12-0.8 2.080-1.813 2.853-2.973z"></path>
</symbol>
</defs>
</svg>